<mxfile host="app.diagrams.net" agent="Mozilla/5.0 (Windows NT 10.0; Win64; x64) AppleWebKit/537.36 (KHTML, like Gecko) Chrome/131.0.0.0 Safari/537.36 Edg/131.0.0.0" version="25.0.3">
  <diagram name="Form Design" id="formDesign1">
    <mxGraphModel dx="1426" dy="903" grid="1" gridSize="10" guides="1" tooltips="1" connect="1" arrows="1" fold="1" page="1" pageScale="1" pageWidth="850" pageHeight="1100" math="0" shadow="0">
      <root>
        <mxCell id="0" />
        <mxCell id="1" parent="0" />
        <!-- Form Container -->
        <mxCell id="formContainer" value="" style="shape=rectangle;whiteSpace=wrap;html=1;strokeColor=#000000;fillColor=#ffffff;" vertex="1" parent="1">
          <mxGeometry x="20" y="20" width="800" height="1000" as="geometry" />
        </mxCell>
        <!-- Form Title -->
        <mxCell id="formTitle" value="Company Code" style="text;strokeColor=none;fillColor=none;fontSize=24;fontColor=#000000;" vertex="1" parent="formContainer">
          <mxGeometry x="30" y="30" width="200" height="40" as="geometry" />
        </mxCell>
        <!-- Company Code Dropdown -->
        <mxCell id="companyCodeLabel" value="Company Code" style="text;strokeColor=none;fillColor=none;fontSize=14;fontColor=#000000;" vertex="1" parent="formContainer">
          <mxGeometry x="30" y="80" width="200" height="20" as="geometry" />
        </mxCell>
        <mxCell id="companyCodeDropdown" value="" style="shape=rectangle;whiteSpace=wrap;html=1;strokeColor=#999999;fillColor=#ffffff;" vertex="1" parent="formContainer">
          <mxGeometry x="30" y="110" width="250" height="30" as="geometry" />
        </mxCell>
        <!-- Company Code Description Input -->
        <mxCell id="companyCodeDescLabel" value="Company Code Description" style="text;strokeColor=none;fillColor=none;fontSize=14;fontColor=#000000;" vertex="1" parent="formContainer">
          <mxGeometry x="30" y="160" width="200" height="20" as="geometry" />
        </mxCell>
        <mxCell id="companyCodeDescInput" value="" style="shape=rectangle;whiteSpace=wrap;html=1;strokeColor=#999999;fillColor=#ffffff;" vertex="1" parent="formContainer">
          <mxGeometry x="30" y="190" width="500" height="30" as="geometry" />
        </mxCell>
        <!-- Active Checkbox -->
        <mxCell id="activeLabel" value="Active" style="text;strokeColor=none;fillColor=none;fontSize=14;fontColor=#000000;" vertex="1" parent="formContainer">
          <mxGeometry x="30" y="240" width="200" height="20" as="geometry" />
        </mxCell>
        <mxCell id="activeCheckbox" value="" style="shape=rectangle;whiteSpace=wrap;html=1;strokeColor=#999999;fillColor=#ffffff;" vertex="1" parent="formContainer">
          <mxGeometry x="30" y="270" width="20" height="20" as="geometry" />
        </mxCell>
        <!-- Last Modified -->
        <mxCell id="lastModifiedLabel" value="Last Modified:" style="text;strokeColor=none;fillColor=none;fontSize=14;fontColor=#000000;" vertex="1" parent="formContainer">
          <mxGeometry x="30" y="320" width="200" height="20" as="geometry" />
        </mxCell>
        <mxCell id="lastModifiedText" value="" style="shape=rectangle;whiteSpace=wrap;html=1;strokeColor=#999999;fillColor=#ffffff;" vertex="1" parent="formContainer">
          <mxGeometry x="30" y="350" width="250" height="30" as="geometry" />
        </mxCell>
        <!-- Modified By -->
        <mxCell id="modifiedByLabel" value="Modified By:" style="text;strokeColor=none;fillColor=none;fontSize=14;fontColor=#000000;" vertex="1" parent="formContainer">
          <mxGeometry x="30" y="400" width="200" height="20" as="geometry" />
        </mxCell>
        <mxCell id="modifiedByText" value="" style="shape=rectangle;whiteSpace=wrap;html=1;strokeColor=#999999;fillColor=#ffffff;" vertex="1" parent="formContainer">
          <mxGeometry x="30" y="430" width="250" height="30" as="geometry" />
        </mxCell>
        <!-- Buttons -->
        <mxCell id="addButton" value="Add" style="shape=rectangle;whiteSpace=wrap;html=1;strokeColor=#008cff;fillColor=#008cff;fontColor=#ffffff;" vertex="1" parent="formContainer">
          <mxGeometry x="30" y="480" width="100" height="40" as="geometry" />
        </mxCell>
        <mxCell id="updateButton" value="Update" style="shape=rectangle;whiteSpace=wrap;html=1;strokeColor=#008cff;fillColor=#008cff;fontColor=#ffffff;" vertex="1" parent="formContainer">
          <mxGeometry x="140" y="480" width="100" height="40" as="geometry" />
        </mxCell>
        <mxCell id="clearButton" value="Clear" style="shape=rectangle;whiteSpace=wrap;html=1;strokeColor=#999999;fillColor=#ffffff;" vertex="1" parent="formContainer">
          <mxGeometry x="250" y="480" width="100" height="40" as="geometry" />
        </mxCell>
      </root>
    </mxGraphModel>
  </diagram>
</mxfile>